<svg width="15" height="15" viewBox="0 0 15 15" fill="none" xmlns="http://www.w3.org/2000/svg">
<path d="M7.5 0C4.05284 0 1.17451 1.9751 0 4.76562L1.24298 5.23437C2.22525 2.90039 4.6085 1.25 7.5 1.25C9.68575 1.25 11.6345 2.24365 12.8511 3.75H10.1966V5H14.9157V0.625H13.5674V2.55859C12.0901 0.988769 9.90695 0 7.5 0ZM13.757 9.76562C12.7748 12.0996 10.3915 13.75 7.5 13.75C5.29055 13.75 3.34972 12.7417 2.12781 11.25H4.80337V10H0.0842697V14.375H1.43258V12.4414C2.9073 13.9917 5.06935 15 7.5 15C10.9472 15 13.8255 13.0249 15 10.2344L13.757 9.76562Z" fill="white"/>
</svg>
