<?xml version="1.0" encoding="UTF-8"?>
<svg id="Capa_1" data-name="Capa 1" xmlns="http://www.w3.org/2000/svg" viewBox="0 0 16 16">
  <defs>
    <style>
      .cls-1 {
        stroke-width: 0px;
      }
    </style>
  </defs>
  <path class="cls-1" d="M15.7,11.09s-.04,0-.05,0c-.8,0-1.6,0-2.4,0-.02,0-.04-.01-.07-.02.02,0,.04-.02.06-.02.2,0,.4,0,.6,0h.07c-.02-.06-.04-.11-.06-.17-.22-.61-.45-1.23-.67-1.84-.02-.04-.03-.06-.08-.06-.47,0-.93,0-1.4,0h-.06c.02.11.05.22.07.33.01.09.02.19.02.29,0,.27,0,.54,0,.81,0,.16.04.32.11.46.13.25.34.34.6.24.12-.04.22-.12.34-.19,0,.01,0,.03-.02.04-.11.11-.24.19-.4.23-.28.07-.56.07-.84-.03-.33-.11-.53-.35-.66-.66-.08-.19-.11-.38-.15-.59-.14.37-.27.74-.41,1.12.03,0,.05,0,.07,0,.16,0,.32,0,.48,0,.02,0,.03.01.05.02-.02,0-.03.02-.05.02-.38,0-.77,0-1.15,0-.02,0-.03-.01-.05-.02.02,0,.03-.02.05-.02.17,0,.33,0,.5,0,.04,0,.06-.01.07-.05.14-.39.29-.79.43-1.18,0-.02.01-.04.01-.06,0-.27,0-.55-.01-.82-.01-.36-.18-.64-.5-.81-.13-.07-.27-.11-.41-.14-.13-.03-.27-.04-.41-.04-.3,0-.59,0-.9,0v3.12s.04,0,.06,0c.21,0,.41,0,.62,0,.02,0,.04.01.05.02-.02,0-.04.02-.05.02-.93,0-1.87,0-2.8,0-.02,0-.03-.01-.05-.02.02,0,.04-.02.05-.02.2,0,.41,0,.61,0,.02,0,.04,0,.08,0,0-.03-.01-.05-.02-.07-.24-.65-.47-1.3-.71-1.95-.01-.04-.03-.05-.08-.05-.66,0-1.32,0-1.97,0-.03,0-.05,0-.07.04-.24.66-.48,1.31-.72,1.97,0,0,0,.02,0,.02.63-.06,1.43-.57,1.46-1.72.02.02.03.03.04.05,0,0,0,.02,0,.02,0,.56,0,1.12,0,1.68,0,.01,0,.03,0,.05H.3c1.17-2.02,2.33-4.04,3.5-6.07-.01,0-.02,0-.03,0-.51,0-1.01,0-1.52,0-.68.03-1.21.44-1.44,1.08-.07.21-.12.43-.12.65,0,.02,0,.03,0,.05,0,.01-.01.02-.02.03,0,0-.02-.02-.02-.03,0,0,0-.02,0-.02,0-.59,0-1.18,0-1.76,0-.01,0-.03,0-.05h4.25c-1.17,2.02-2.33,4.04-3.5,6.07.03,0,.05,0,.07,0,.58,0,1.15,0,1.73,0,.09,0,.19.02.25-.02.06-.04.07-.14.1-.22.73-2.01,1.46-4.01,2.19-6.02,0,0,0-.02.01-.03.02,0,.03,0,.05,0,0,.02,0,.04.02.06.24.65.47,1.3.71,1.95.35.95.69,1.9,1.04,2.85,0,.02.02.04.03.07v-4.67s-.05,0-.07,0c-.2,0-.4,0-.6,0-.01,0-.03,0-.04,0-.01,0-.02-.01-.03-.02,0,0,.02-.02.03-.02.01,0,.03,0,.04,0,.82,0,1.65,0,2.47,0,.27,0,.54.03.8.1.38.11.73.28.98.6.31.4.4.84.19,1.31-.13.3-.38.51-.66.66-.25.13-.52.21-.8.25.49.05.97.17,1.36.5.01-.03.02-.04.03-.06.28-.77.56-1.53.84-2.3.16-.43.31-.85.47-1.28.02,0,.03,0,.05,0,0,.02,0,.04.02.06.74,2.05,1.49,4.1,2.23,6.14.03.09.03.09.13.09.23,0,.46,0,.69,0v.04ZM8.52,7.89h.07c.25,0,.5,0,.75,0,.13,0,.25,0,.38-.02.39-.04.63-.24.72-.6.11-.44.12-.89,0-1.33-.13-.53-.47-.83-1.01-.89-.29-.03-.59-.02-.89-.02,0,0,0,0-.01,0v2.86ZM5.31,6.13s0,0-.01,0c-.34.93-.68,1.86-1.02,2.8h2.05c-.34-.94-.68-1.87-1.02-2.8ZM13.16,8.94c-.34-.94-.68-1.87-1.02-2.82,0,.02-.01.03-.02.03-.27.75-.54,1.49-.82,2.24-.01.03,0,.05.02.07.12.12.22.26.28.41.02.05.04.06.09.06.42,0,.85,0,1.27,0,.06,0,.12,0,.19,0Z"/>
</svg>