<?xml version="1.0" encoding="UTF-8"?>
<svg id="Capa_1" data-name="Capa 1" xmlns="http://www.w3.org/2000/svg" viewBox="0 0 300 125">
  <defs>
    <style>
      .cls-1 {
        fill: #ffe800;
        stroke-width: 0px;
      }
    </style>
  </defs>
  <path class="cls-1" d="M295.42,120.84c-.34.02-.68.05-1.02.05-15.07,0-30.15,0-45.22-.01-.41,0-.83-.25-1.24-.38.41-.14.81-.4,1.22-.4,3.79-.03,7.57-.02,11.36-.02h1.37c-.41-1.17-.75-2.16-1.11-3.15-4.21-11.59-8.43-23.17-12.6-34.77-.3-.84-.65-1.16-1.59-1.15-8.79.04-17.57.03-26.36.03h-1.08c.45,2.12.97,4.14,1.28,6.18.26,1.79.37,3.62.39,5.43.06,5.11,0,10.23.06,15.34.04,3.06.72,6.01,2.13,8.75,2.42,4.73,6.37,6.42,11.37,4.54,2.22-.84,4.2-2.31,6.41-3.56-.09.2-.15.56-.36.77-2.1,2.12-4.59,3.61-7.48,4.32-5.29,1.29-10.59,1.27-15.78-.51-6.16-2.11-10.01-6.57-12.4-12.46-1.43-3.53-2.16-7.23-2.8-11.06-2.56,7.03-5.12,14.06-7.73,21.22.53.02.93.06,1.33.06,2.99,0,5.98,0,8.98.02.3,0,.59.26.89.4-.29.14-.58.4-.87.41-7.23.02-14.47.02-21.7,0-.3,0-.6-.25-.9-.39.29-.14.59-.41.88-.41,3.14-.03,6.29-.04,9.43,0,.76.01,1.11-.22,1.38-.96,2.67-7.44,5.39-14.86,8.09-22.29.14-.38.24-.8.24-1.21-.05-5.19,0-10.38-.22-15.56-.28-6.84-3.35-12.16-9.5-15.33-2.42-1.25-5.11-2.1-7.78-2.7-2.52-.57-5.17-.74-7.77-.79-5.6-.11-11.21-.03-16.91-.03v58.88c.39,0,.8,0,1.2,0,3.9,0,7.8-.01,11.7.02.33,0,.67.26,1,.4-.34.13-.68.38-1.03.38-17.61.02-35.22.02-52.84,0-.33,0-.66-.26-.99-.4.34-.13.68-.37,1.02-.38,3.83-.03,7.65-.02,11.48-.02.41,0,.82,0,1.42,0-.15-.5-.25-.89-.39-1.26-4.45-12.26-8.91-24.52-13.33-36.79-.28-.78-.66-1.01-1.46-1.01-12.42.03-24.85.02-37.27.01-.59,0-1.03,0-1.29.74-4.48,12.41-9,24.81-13.51,37.21-.05.14-.07.29-.1.44,11.92-1.21,26.97-10.83,27.57-32.54.39.43.61.63.77.87.07.11.02.3.02.45,0,10.57,0,21.14,0,31.71,0,.26-.02.52-.04.88H4.58C26.63,82.6,48.62,44.49,70.67,6.29c-.24-.07-.41-.16-.57-.16-9.54.03-19.1-.18-28.63.18-12.87.48-22.86,8.22-27.18,20.43-1.41,3.99-2.2,8.1-2.34,12.33-.01.3.03.62-.06.9-.06.21-.28.37-.43.55-.13-.18-.3-.34-.39-.54-.06-.12-.01-.3-.01-.45,0-11.1,0-22.2,0-33.3,0-.26.03-.52.04-.86h80.3c-22.05,38.21-44.05,76.33-66.16,114.64.57.03.96.06,1.35.06,10.87,0,21.74.02,32.61-.01,1.62,0,3.59.32,4.77-.47,1.09-.72,1.38-2.71,1.91-4.17,13.79-37.87,27.57-75.75,41.36-113.63.06-.18.14-.35.22-.52.3,0,.61,0,.91,0,.1.36.18.73.31,1.08,4.45,12.26,8.9,24.52,13.35,36.78,6.52,17.95,13.03,35.89,19.55,53.84.12.34.28.67.54,1.28V6.13c-.49,0-.9,0-1.31,0-3.75,0-7.5,0-11.25,0-.27,0-.55.05-.79-.02-.2-.06-.35-.28-.52-.43.16-.12.3-.31.48-.35.25-.06.53-.02.79-.02,15.56,0,31.13,0,46.69,0,5.14,0,10.2.53,15.15,1.92,7.22,2.03,13.75,5.3,18.44,11.34,5.84,7.54,7.47,15.89,3.5,24.82-2.53,5.69-7.1,9.54-12.5,12.43-4.7,2.52-9.74,4.01-15.04,4.73,9.34,1.02,18.25,3.18,25.68,9.49.2-.49.35-.83.48-1.19,5.26-14.46,10.51-28.92,15.77-43.38,2.94-8.06,5.89-16.12,8.84-24.18.3,0,.61,0,.91,0,.1.36.17.73.29,1.08,14.03,38.65,28.07,77.31,42.11,115.96.64,1.76.64,1.75,2.49,1.76,4.35.02,8.7.05,13.05.07v.68ZM159.77,60.34h1.27c4.7,0,9.39.04,14.09-.02,2.38-.03,4.77-.15,7.14-.42,7.29-.81,11.82-4.44,13.53-11.33,2.06-8.35,2.26-16.83.15-25.19-2.53-9.99-8.92-15.72-19.15-16.83-5.55-.6-11.19-.29-16.79-.38-.06,0-.13.07-.24.13v54.04ZM99.15,27.27c-.08,0-.17-.02-.25-.03-6.4,17.6-12.8,35.2-19.23,52.85h38.65c-6.42-17.67-12.8-35.25-19.18-52.82ZM247.41,80.16c-6.46-17.78-12.84-35.37-19.3-53.15-.17.38-.25.51-.3.65-5.13,14.1-10.25,28.21-15.4,42.3-.23.63-.03.96.37,1.36,2.27,2.27,4.12,4.85,5.36,7.82.36.86.84,1.04,1.7,1.04,7.99-.03,15.98-.02,23.97-.02,1.13,0,2.26,0,3.6,0Z"/>
</svg>